<?xml version="1.0" encoding="utf-8"?>
<!-- Svg Vector Icons : http://www.onlinewebfonts.com/icon -->
<!DOCTYPE svg PUBLIC "-//W3C//DTD SVG 1.1//EN" "http://www.w3.org/Graphics/SVG/1.1/DTD/svg11.dtd">
<svg version="1.1" xmlns="http://www.w3.org/2000/svg" xmlns:xlink="http://www.w3.org/1999/xlink" x="0px" y="0px" viewBox="0 0 1000 1000" enable-background="new 0 0 1000 1000" xml:space="preserve">
<metadata> Svg Vector Icons : http://www.onlinewebfonts.com/icon </metadata>
<g><g transform="translate(0.000000,511.000000) scale(0.100000,-0.100000)"><path d="M7477.1,4761.7c-198.4-172.7-91.8-466.6,169-466.6c150.6,0,238.8,69.8,275.5,227.8c22,80.8,3.7,121.2-84.5,213.1C7701.2,4868.2,7609.4,4875.6,7477.1,4761.7z"/><path d="M1088.1,4482.5c-282.9-121.3-330.7-514.4-88.2-716.4c224.1-191.1,558.4-80.8,657.6,213.1c47.8,143.3-11,323.3-139.6,437.2C1433.4,4493.5,1198.3,4530.2,1088.1,4482.5z M1367.3,4162.8c62.4-77.2,0-180-113.9-180s-176.3,102.9-113.9,180c29.4,33,77.2,58.8,113.9,58.8S1337.9,4195.9,1367.3,4162.8z"/><path d="M4141.2,4309.8c-657.6-117.6-1344.7-422.5-1895.8-837.7c-308.6-231.5-624.6-536.4-624.6-606.2c0-44.1,106.5-150.7,150.6-150.7c18.4,0,158,117.6,316,260.9c1686.3,1535.7,4184.6,1488,5779.1-113.9C8704.2,2020.9,9123,933.4,9067.9-256.9c-14.7-316-51.4-580.5-113.9-830.3c-128.6-492.3-459.2-1157.3-775.2-1554.1c-242.5-304.9-275.5-411.5-147-462.9c99.2-36.7,165.3,18.4,433.5,378.4c676,896.4,992,2009.7,874.4,3093.5C9123,2370,7642.5,3971.8,5684.2,4313.5C5283.8,4383.3,4534.3,4379.6,4141.2,4309.8z"/><path d="M9310.4,3215c-268.2-121.3-327-470.3-117.6-679.7c216.8-216.8,609.9-121.3,690.7,165.3C9979.1,3053.3,9637.4,3358.2,9310.4,3215z M9586,2928.4c117.6-117.5-29.4-293.9-176.3-213.1c-124.9,66.1-69.8,257.2,73.5,257.2C9516.2,2972.5,9560.2,2954.1,9586,2928.4z"/><path d="M4504.9,2895.3C3292.5,2719,2333.6,1844.6,2025,643.2c-124.9-496-77.2-1469.6,77.2-1568.8c66.1-44.1,80.8-40.4,154.3,14.7c62.5,44.1,62.5,66.2,3.7,393.1C2157.2,81,2238,584.4,2524.6,1164.9c569.5,1138.9,1840.7,1701.1,3130.2,1381.4c246.2-62.5,271.9-62.5,327-7.4c135.9,139.6-44.1,249.8-562.1,341.7C5074.3,2939.4,4846.5,2943.1,4504.9,2895.3z"/><path d="M6657.8,2678.5c-257.2-62.5-481.3-334.3-481.3-595.2c-3.7-598.8,738.5-881.7,1120.6-426.2C7682.9,2116.4,7245.6,2818.1,6657.8,2678.5z M6981.1,2370c205.7-106.6,246.1-374.8,80.8-540.1c-84.5-80.8-143.3-106.6-253.5-106.6c-316,0-459.2,363.7-231.5,591.5C6698.2,2432.4,6823.1,2450.8,6981.1,2370z"/><path d="M709.7,2594.1c-187.4-58.8-470.3-330.7-543.8-529.1c-128.6-330.7-66.1-687,161.7-936.9c202.1-224.1,382.1-301.2,687-301.2c301.3,0,492.3,80.8,679.7,293.9c165.3,191,220.4,341.7,220.4,602.5c0,260.9-55.1,411.5-224.1,606.2C1455.5,2597.7,1055,2704.3,709.7,2594.1z M1282.8,2296.5c268.2-139.6,418.8-459.2,341.7-720.1c-88.2-293.9-327-477.6-628.3-477.6c-330.7,0-624.6,297.6-624.6,631.9c0,191.1,135.9,422.5,304.9,525.4C853,2362.6,1124.8,2381,1282.8,2296.5z"/><path d="M9479.4,1870.3c-33.1-18.4-80.8-84.5-106.6-143.3c-128.6-308.6,341.7-525.4,496-224.1C9993.8,1745.4,9718.2,2009.9,9479.4,1870.3z"/><path d="M4541.6,1528.6c-845-224.1-1388.7-1065.4-1216.1-1888.4c73.5-352.7,209.4-609.9,459.2-856C4806.1-2237.2,6543.9-1509.8,6543.9-58.6c0,874.4-665,1576.1-1543.1,1620.2C4842.9,1569,4644.5,1554.3,4541.6,1528.6z M5478.5,1164.9c308.6-143.3,492.3-327,650.3-642.9c124.9-249.8,135.9-301.2,132.2-573.1c-3.7-602.5-323.3-1065.4-889.1-1278.5c-165.3-62.5-264.5-73.5-518.1-62.5c-268.2,11-345.3,33.1-543.7,135.9c-275.5,150.6-496,378.4-624.6,657.6c-84.5,176.4-99.2,260.9-99.2,540.1c0,279.2,14.7,363.7,95.5,532.7c165.3,352.7,389.4,565.8,764.2,723.8C4732.7,1319.2,5180.9,1304.5,5478.5,1164.9z"/><path d="M7355.8,1304.5c-36.7-44.1-29.4-99.2,47.8-290.3C7565.3,606.5,7613,371.3,7613-58.6c0-1091.2-562.1-1972.9-1554.1-2443.2c-845-400.4-1833.3-330.7-2623.2,187.4c-257.2,165.3-382.1,169-382.1,11c0-235.2,848.7-635.6,1535.7-720.1C6385.9-3243.9,7976.8-1752.2,7895.9,66.4C7859.2,859.9,7557.9,1547,7355.8,1304.5z"/><path d="M551.7,521.9c-80.8-91.9-66.1-1047.1,18.4-1443.9c382.1-1814.9,1770.9-3174.3,3582.1-3508.6c393.1-69.8,1142.6-69.8,1557.8,0c437.2,77.2,503.3,106.6,503.3,216.8c0,143.3-84.5,161.6-404.1,91.8c-1436.5-308.6-2931.8,165.3-3938.5,1252.8c-466.6,503.3-800.9,1120.6-988.3,1822.3c-58.8,220.4-80.8,448.2-95.5,933.2c-14.7,415.2-33.1,654-62.4,668.7C658.2,599.1,603.1,588.1,551.7,521.9z"/><path d="M2392.3-1135c-213.1-95.5-330.7-268.2-330.7-485c0-315.9,205.7-514.4,536.4-514.4c147,0,187.4,18.4,312.3,139.6c154.3,158,198.4,279.2,165.3,462.9C3020.6-1230.5,2653.2-1021.1,2392.3-1135z M2730.4-1462c66.1-58.8,88.2-216.7,36.7-290.2c-143.3-216.8-488.6-62.5-426.2,187.4C2381.3-1403.2,2598.1-1344.4,2730.4-1462z"/><path d="M783.2-2916.9c-246.2-264.5,124.9-631.9,378.4-374.7c51.4,47.8,91.9,132.3,91.9,183.7c0,128.6-154.3,275.5-286.6,275.5C904.4-2832.4,830.9-2865.4,783.2-2916.9z"/><path d="M6848.8-3038.1c-242.5-121.2-451.9-437.2-451.9-690.7c0-135.9,84.5-352.7,194.7-485c297.6-360,856-356.4,1157.3,3.7c316,385.8,187.4,936.9-275.5,1172C7322.8-2964.6,7003.2-2964.6,6848.8-3038.1z M7326.5-3287.9c496-209.4,371.1-903.8-161.6-903.8c-499.7,0-650.3,657.7-205.8,878.1C7142.8-3221.8,7172.1-3221.8,7326.5-3287.9z"/><path d="M8645.4-3372.5c-44.1-36.7-88.2-110.2-102.9-165.3c-18.4-80.8,0-121.2,88.2-213.1c135.9-132.2,227.8-139.6,360-25.7c194.8,169,88.2,466.6-169,466.6C8766.7-3310,8685.8-3339.4,8645.4-3372.5z"/><path d="M1106.5-3890.5c-216.8-220.4-165.3-532.7,117.6-683.3c268.2-147,580.5,62.4,580.5,396.8c0,110.2-25.7,165.3-124.9,264.5C1573.1-3806,1529-3787.6,1382-3787.6C1242.4-3787.6,1191-3806,1106.5-3890.5z M1488.5-4103.6c69.8-66.1,69.8-73.5,22-165.3c-22-36.7-69.8-69.8-102.9-69.8c-143.3,0-209.4,183.7-88.2,253.5C1404.1-4033.8,1422.4-4033.8,1488.5-4103.6z"/></g></g>
</svg>